<?xml version="1.0" encoding="UTF-8"?>
<svg width="129px" height="26px" viewBox="0 0 129 26" version="1.1" xmlns="http://www.w3.org/2000/svg" xmlns:xlink="http://www.w3.org/1999/xlink">
    <title>Coursor</title>
    <g id="Page-1" stroke="none" stroke-width="1" fill="none" fill-rule="evenodd">
        <path d="M13.006,25.432 C17.422,25.432 20.77,23.464 23.05,19.528 L23.05,19.528 L18.658,17.404 C18.13,18.436 17.356,19.276 16.336,19.924 C15.316,20.572 14.206,20.896 13.006,20.896 C10.822,20.896 9.022,20.152 7.606,18.664 C6.19,17.176 5.482,15.292 5.482,13.012 C5.482,10.732 6.19,8.848 7.606,7.36 C9.022,5.872 10.822,5.128 13.006,5.128 C14.206,5.128 15.316,5.458 16.336,6.118 C17.356,6.778 18.13,7.612 18.658,8.62 L18.658,8.62 L23.05,6.46 C20.842,2.548 17.494,0.592 13.006,0.592 C9.358,0.592 6.316,1.75 3.88,4.066 C1.444,6.382 0.226,9.364 0.226,13.012 C0.226,16.66 1.444,19.642 3.88,21.958 C6.316,24.274 9.358,25.432 13.006,25.432 Z M34.066,25.432 C36.85,25.432 39.082,24.556 40.762,22.804 C42.442,21.028 43.282,18.856 43.282,16.288 C43.282,13.72 42.442,11.56 40.762,9.808 C39.082,8.056 36.85,7.18 34.066,7.18 C31.282,7.18 29.056,8.056 27.388,9.808 C25.72,11.56 24.886,13.72 24.886,16.288 C24.886,18.856 25.72,21.022 27.388,22.786 C29.056,24.55 31.282,25.432 34.066,25.432 Z M34.066,21.364 C32.698,21.364 31.618,20.884 30.826,19.924 C30.034,18.94 29.638,17.728 29.638,16.288 C29.638,14.872 30.034,13.678 30.826,12.706 C31.618,11.734 32.698,11.248 34.066,11.248 C35.434,11.248 36.52,11.734 37.324,12.706 C38.128,13.678 38.53,14.872 38.53,16.288 C38.53,17.728 38.128,18.934 37.324,19.906 C36.52,20.878 35.434,21.364 34.066,21.364 Z M52.282,25.432 C54.802,25.432 56.842,24.556 58.402,22.804 L58.402,22.804 L58.402,25 L62.974,25 L62.974,7.612 L58.402,7.612 L58.402,19.384 C57.37,20.704 56.05,21.364 54.442,21.364 C52.306,21.364 51.238,20.296 51.238,18.16 L51.238,18.16 L51.238,7.612 L46.666,7.612 L46.666,19.96 C46.666,21.688 47.134,23.032 48.07,23.992 C49.006,24.952 50.41,25.432 52.282,25.432 Z M72.082,25 L72.082,13.516 C72.442,12.964 73.054,12.496 73.918,12.112 C74.782,11.728 75.598,11.536 76.366,11.536 C76.894,11.536 77.314,11.572 77.626,11.644 L77.626,11.644 L77.626,7.18 C76.594,7.18 75.574,7.444 74.566,7.972 C73.558,8.5 72.73,9.172 72.082,9.988 L72.082,9.988 L72.082,7.612 L67.51,7.612 L67.51,25 L72.082,25 Z M86.734,25.432 C89.086,25.432 90.928,24.91 92.26,23.866 C93.592,22.822 94.258,21.484 94.258,19.852 C94.258,18.748 94.006,17.812 93.502,17.044 C92.998,16.276 92.362,15.718 91.594,15.37 C90.826,15.022 89.998,14.722 89.11,14.47 C88.222,14.218 87.394,14.032 86.626,13.912 C85.858,13.792 85.222,13.606 84.718,13.354 C84.214,13.102 83.962,12.784 83.962,12.4 C83.962,11.896 84.214,11.482 84.718,11.158 C85.222,10.834 85.882,10.672 86.698,10.672 C87.73,10.672 88.708,10.864 89.632,11.248 C90.556,11.632 91.294,12.112 91.846,12.688 L91.846,12.688 L93.682,9.556 C91.69,7.972 89.35,7.18 86.662,7.18 C84.454,7.18 82.714,7.708 81.442,8.764 C80.17,9.82 79.534,11.116 79.534,12.652 C79.534,13.732 79.792,14.638 80.308,15.37 C80.824,16.102 81.46,16.636 82.216,16.972 C82.972,17.308 83.8,17.596 84.7,17.836 C85.6,18.076 86.428,18.256 87.184,18.376 C87.94,18.496 88.576,18.694 89.092,18.97 C89.608,19.246 89.866,19.6 89.866,20.032 C89.866,20.608 89.62,21.064 89.128,21.4 C88.636,21.736 87.91,21.904 86.95,21.904 C85.918,21.904 84.826,21.664 83.674,21.184 C82.522,20.704 81.61,20.152 80.938,19.528 L80.938,19.528 L78.958,22.732 C79.87,23.572 81.016,24.232 82.396,24.712 C83.776,25.192 85.222,25.432 86.734,25.432 Z M105.706,25.432 C108.49,25.432 110.722,24.556 112.402,22.804 C114.082,21.028 114.922,18.856 114.922,16.288 C114.922,13.72 114.082,11.56 112.402,9.808 C110.722,8.056 108.49,7.18 105.706,7.18 C102.922,7.18 100.696,8.056 99.028,9.808 C97.36,11.56 96.526,13.72 96.526,16.288 C96.526,18.856 97.36,21.022 99.028,22.786 C100.696,24.55 102.922,25.432 105.706,25.432 Z M105.706,21.364 C104.338,21.364 103.258,20.884 102.466,19.924 C101.674,18.94 101.278,17.728 101.278,16.288 C101.278,14.872 101.674,13.678 102.466,12.706 C103.258,11.734 104.338,11.248 105.706,11.248 C107.074,11.248 108.16,11.734 108.964,12.706 C109.768,13.678 110.17,14.872 110.17,16.288 C110.17,17.728 109.768,18.934 108.964,19.906 C108.16,20.878 107.074,21.364 105.706,21.364 Z M122.878,25 L122.878,13.516 C123.238,12.964 123.85,12.496 124.714,12.112 C125.578,11.728 126.394,11.536 127.162,11.536 C127.69,11.536 128.11,11.572 128.422,11.644 L128.422,11.644 L128.422,7.18 C127.39,7.18 126.37,7.444 125.362,7.972 C124.354,8.5 123.526,9.172 122.878,9.988 L122.878,9.988 L122.878,7.612 L118.306,7.612 L118.306,25 L122.878,25 Z" id="Coursor" fill="#000000" fill-rule="nonzero"></path>
    </g>
</svg>